HIERARCHY
ROOT Hips
{
	OFFSET 0.053599 88.859886 3.107447
	CHANNELS 6 Xposition Yposition Zposition Zrotation Yrotation Xrotation 
	JOINT Spine
	{
		OFFSET -0.000000 8.814246 -2.080107
		CHANNELS 3 Zrotation Yrotation Xrotation
		JOINT Spine1
		{
			OFFSET 0.000000 8.844141 0.000000
			CHANNELS 3 Zrotation Yrotation Xrotation
			JOINT Spine2
			{
				OFFSET -0.000000 11.682268 0.000000
				CHANNELS 3 Zrotation Yrotation Xrotation
				JOINT Spine3
				{
					OFFSET 0.000000 11.746700 0.000000
					CHANNELS 3 Zrotation Yrotation Xrotation
					JOINT Neck
					{
						OFFSET -0.000000 17.658264 -0.000000
						CHANNELS 3 Zrotation Yrotation Xrotation
						JOINT Neck1
						{
							OFFSET -0.000000 5.101515 -0.000000
							CHANNELS 3 Zrotation Yrotation Xrotation
							JOINT Head
							{
								OFFSET 0.000000 5.101515 0.000000
								CHANNELS 3 Zrotation Yrotation Xrotation
								JOINT HeadEnd
								{
									OFFSET 0.000000 11.655085 0.000000
									CHANNELS 3 Zrotation Yrotation Xrotation
									End Site
									{
										OFFSET 0.000000 0.000000 0.000000
									}
								}
							}
						}
					}
					JOINT RightShoulder
					{
						OFFSET -2.625389 11.175210 0.000000
						CHANNELS 3 Zrotation Yrotation Xrotation
						JOINT RightArm
						{
							OFFSET -0.000000 10.434715 -0.000000
							CHANNELS 3 Zrotation Yrotation Xrotation
							JOINT RightForeArm
							{
								OFFSET -0.000000 29.628420 0.000000
								CHANNELS 3 Zrotation Yrotation Xrotation
								JOINT RightHand
								{
									OFFSET -0.000000 22.857611 0.000000
									CHANNELS 3 Zrotation Yrotation Xrotation
									JOINT RightHandThumb1
									{
										OFFSET -2.867323 3.959563 2.944291
										CHANNELS 3 Zrotation Yrotation Xrotation
										JOINT RightHandThumb2
										{
											OFFSET 0.000000 3.350399 0.000000
											CHANNELS 3 Zrotation Yrotation Xrotation
											JOINT RightHandThumb3
											{
												OFFSET 0.000000 3.756509 -0.000000
												CHANNELS 3 Zrotation Yrotation Xrotation
												JOINT RightHandThumb4
												{
													OFFSET 0.000000 3.147345 0.000000
													CHANNELS 3 Zrotation Yrotation Xrotation
													End Site
													{
														OFFSET 0.000000 0.000000 0.000000
													}
												}
											}
										}
									}
									JOINT RightHandIndex1
									{
										OFFSET -0.086752 10.030893 2.345280
										CHANNELS 3 Zrotation Yrotation Xrotation
										JOINT RightHandIndex2
										{
											OFFSET -0.000000 4.061090 0.000000
											CHANNELS 3 Zrotation Yrotation Xrotation
											JOINT RightHandIndex3
											{
												OFFSET -0.000000 3.248873 0.000000
												CHANNELS 3 Zrotation Yrotation Xrotation
												JOINT RightHandIndex4
												{
													OFFSET 0.000000 2.639709 -0.000000
													CHANNELS 3 Zrotation Yrotation Xrotation
													End Site
													{
														OFFSET 0.000000 0.000000 0.000000
													}
												}
											}
										}
									}
									JOINT RightHandMiddle1
									{
										OFFSET 0.104102 9.502952 0.006768
										CHANNELS 3 Zrotation Yrotation Xrotation
										JOINT RightHandMiddle2
										{
											OFFSET 0.000000 4.568727 0.000000
											CHANNELS 3 Zrotation Yrotation Xrotation
											JOINT RightHandMiddle3
											{
												OFFSET 0.000000 3.654981 -0.000000
												CHANNELS 3 Zrotation Yrotation Xrotation
												JOINT RightHandMiddle4
												{
													OFFSET -0.000000 2.741236 -0.000000
													CHANNELS 3 Zrotation Yrotation Xrotation
													End Site
													{
														OFFSET 0.000000 0.000000 0.000000
													}
												}
											}
										}
									}
									JOINT RightHandRing1
									{
										OFFSET 0.086752 8.921708 -2.267442
										CHANNELS 3 Zrotation Yrotation Xrotation
										JOINT RightHandRing2
										{
											OFFSET -0.000000 4.061090 0.000000
											CHANNELS 3 Zrotation Yrotation Xrotation
											JOINT RightHandRing3
											{
												OFFSET 0.000000 3.654981 -0.000000
												CHANNELS 3 Zrotation Yrotation Xrotation
												JOINT RightHandRing4
												{
													OFFSET 0.000000 2.741236 -0.000000
													CHANNELS 3 Zrotation Yrotation Xrotation
													End Site
													{
														OFFSET 0.000000 0.000000 0.000000
													}
												}
											}
										}
									}
									JOINT RightHandPinky1
									{
										OFFSET -0.173504 7.976997 -4.467199
										CHANNELS 3 Zrotation Yrotation Xrotation
										JOINT RightHandPinky2
										{
											OFFSET 0.000000 3.350399 -0.000000
											CHANNELS 3 Zrotation Yrotation Xrotation
											JOINT RightHandPinky3
											{
												OFFSET -0.000000 2.842763 0.000000
												CHANNELS 3 Zrotation Yrotation Xrotation
												JOINT RightHandPinky4
												{
													OFFSET -0.000000 2.639709 0.000000
													CHANNELS 3 Zrotation Yrotation Xrotation
													End Site
													{
														OFFSET 0.000000 0.000000 0.000000
													}
												}
											}
										}
									}
									JOINT RightForeArmEnd
									{
										OFFSET 0.000000 0.000000 0.000000
										CHANNELS 3 Zrotation Yrotation Xrotation
										End Site
										{
											OFFSET 0.000000 0.000000 0.000000
										}
									}
								}
								JOINT RightArmEnd
								{
									OFFSET 0.000000 0.000000 0.000000
									CHANNELS 3 Zrotation Yrotation Xrotation
									End Site
									{
										OFFSET 0.000000 0.000000 0.000000
									}
								}
							}
						}
					}
					JOINT LeftShoulder
					{
						OFFSET 2.625389 11.175210 0.000000
						CHANNELS 3 Zrotation Yrotation Xrotation
						JOINT LeftArm
						{
							OFFSET 0.000000 10.813635 -0.000000
							CHANNELS 3 Zrotation Yrotation Xrotation
							JOINT LeftForeArm
							{
								OFFSET 0.000000 28.724781 0.000000
								CHANNELS 3 Zrotation Yrotation Xrotation
								JOINT LeftHand
								{
									OFFSET 0.644384 25.716167 -0.328871
									CHANNELS 3 Zrotation Yrotation Xrotation
									JOINT LeftHandThumb1
									{
										OFFSET 2.867323 3.959563 2.944291
										CHANNELS 3 Zrotation Yrotation Xrotation
										JOINT LeftHandThumb2
										{
											OFFSET 0.000000 3.350399 0.000000
											CHANNELS 3 Zrotation Yrotation Xrotation
											JOINT LeftHandThumb3
											{
												OFFSET -0.000000 3.756509 0.000000
												CHANNELS 3 Zrotation Yrotation Xrotation
												JOINT LeftHandThumb4
												{
													OFFSET -0.000000 3.100000 0.000000
													CHANNELS 3 Zrotation Yrotation Xrotation
													End Site
													{
														OFFSET 0.000000 0.000000 0.000000
													}
												}
											}
										}
									}
									JOINT LeftHandIndex1
									{
										OFFSET 0.086752 10.030893 2.345280
										CHANNELS 3 Zrotation Yrotation Xrotation
										JOINT LeftHandIndex2
										{
											OFFSET -0.000000 4.061090 -0.000000
											CHANNELS 3 Zrotation Yrotation Xrotation
											JOINT LeftHandIndex3
											{
												OFFSET 0.000000 3.248873 -0.000000
												CHANNELS 3 Zrotation Yrotation Xrotation
												JOINT LeftHandIndex4
												{
													OFFSET 0.000000 2.639709 -0.000000
													CHANNELS 3 Zrotation Yrotation Xrotation
													End Site
													{
														OFFSET 0.000000 0.000000 0.000000
													}
												}
											}
										}
									}
									JOINT LeftHandMiddle1
									{
										OFFSET -0.104102 9.502952 0.006768
										CHANNELS 3 Zrotation Yrotation Xrotation
										JOINT LeftHandMiddle2
										{
											OFFSET -0.000000 4.568727 -0.000000
											CHANNELS 3 Zrotation Yrotation Xrotation
											JOINT LeftHandMiddle3
											{
												OFFSET 0.000000 3.654981 0.000000
												CHANNELS 3 Zrotation Yrotation Xrotation
												JOINT LeftHandMiddle4
												{
													OFFSET 0.000000 2.741236 -0.000000
													CHANNELS 3 Zrotation Yrotation Xrotation
													End Site
													{
														OFFSET 0.000000 0.000000 0.000000
													}
												}
											}
										}
									}
									JOINT LeftHandRing1
									{
										OFFSET -0.086752 8.921708 -2.267442
										CHANNELS 3 Zrotation Yrotation Xrotation
										JOINT LeftHandRing2
										{
											OFFSET 0.000000 4.061090 0.000000
											CHANNELS 3 Zrotation Yrotation Xrotation
											JOINT LeftHandRing3
											{
												OFFSET 0.000000 3.654981 0.000000
												CHANNELS 3 Zrotation Yrotation Xrotation
												JOINT LeftHandRing4
												{
													OFFSET 0.000000 2.741236 0.000000
													CHANNELS 3 Zrotation Yrotation Xrotation
													End Site
													{
														OFFSET 0.000000 0.000000 0.000000
													}
												}
											}
										}
									}
									JOINT LeftHandPinky1
									{
										OFFSET 0.173504 7.976997 -4.467199
										CHANNELS 3 Zrotation Yrotation Xrotation
										JOINT LeftHandPinky2
										{
											OFFSET -0.000000 3.350399 -0.000000
											CHANNELS 3 Zrotation Yrotation Xrotation
											JOINT LeftHandPinky3
											{
												OFFSET 0.000000 2.842763 0.000000
												CHANNELS 3 Zrotation Yrotation Xrotation
												JOINT LeftHandPinky4
												{
													OFFSET -0.000000 2.639709 -0.000000
													CHANNELS 3 Zrotation Yrotation Xrotation
													End Site
													{
														OFFSET 0.000000 0.000000 0.000000
													}
												}
											}
										}
									}
									JOINT LeftForeArmEnd
									{
										OFFSET 0.000000 0.000000 0.000000
										CHANNELS 3 Zrotation Yrotation Xrotation
										End Site
										{
											OFFSET 0.000000 0.000000 0.000000
										}
									}
								}
								JOINT LeftArmEnd
								{
									OFFSET 0.000000 0.000000 0.000000
									CHANNELS 3 Zrotation Yrotation Xrotation
									End Site
									{
										OFFSET 0.000000 0.000000 0.000000
									}
								}
							}
						}
					}
				}
			}
		}
	}
	JOINT RightUpLeg
	{
		OFFSET -11.289943 0.000000 0.000000
		CHANNELS 3 Zrotation Yrotation Xrotation
		JOINT RightLeg
		{
			OFFSET 0.000000 -38.200325 0.000000
			CHANNELS 3 Zrotation Yrotation Xrotation
			JOINT RightFoot
			{
				OFFSET -0.000000 -39.900856 -0.000000
				CHANNELS 3 Zrotation Yrotation Xrotation
				JOINT RightToeBase
				{
					OFFSET 0.000000 0.000000 15.261641
					CHANNELS 3 Zrotation Yrotation Xrotation
					JOINT RightToeBaseEnd
					{
						OFFSET 0.000000 0.000000 7.370709
						CHANNELS 3 Zrotation Yrotation Xrotation
						End Site
						{
							OFFSET 0.000000 0.000000 0.000000
						}
					}
				}
				JOINT RightLegEnd
				{
					OFFSET 0.000000 0.000000 0.000000
					CHANNELS 3 Zrotation Yrotation Xrotation
					End Site
					{
						OFFSET 0.000000 0.000000 0.000000
					}
				}
			}
			JOINT RightUpLegEnd
			{
				OFFSET 0.000000 0.000000 0.000000
				CHANNELS 3 Zrotation Yrotation Xrotation
				End Site
				{
					OFFSET 0.000000 0.000000 0.000000
				}
			}
		}
	}
	JOINT LeftUpLeg
	{
		OFFSET 11.315661 -0.000000 0.000000
		CHANNELS 3 Zrotation Yrotation Xrotation
		JOINT LeftLeg
		{
			OFFSET -0.000000 -38.200325 -0.000000
			CHANNELS 3 Zrotation Yrotation Xrotation
			JOINT LeftFoot
			{
				OFFSET 0.000000 -39.900856 -0.000000
				CHANNELS 3 Zrotation Yrotation Xrotation
				JOINT LeftToeBase
				{
					OFFSET -0.000000 -0.000000 15.261641
					CHANNELS 3 Zrotation Yrotation Xrotation
					JOINT LeftToeBaseEnd
					{
						OFFSET 0.000000 -0.000000 7.539996
						CHANNELS 3 Zrotation Yrotation Xrotation
						End Site
						{
							OFFSET 0.000000 0.000000 0.000000
						}
					}
				}
				JOINT LeftLegEnd
				{
					OFFSET 0.000000 0.000000 0.000000
					CHANNELS 3 Zrotation Yrotation Xrotation
					End Site
					{
						OFFSET 0.000000 0.000000 0.000000
					}
				}
			}
			JOINT LeftUpLegEnd
			{
				OFFSET 0.000000 0.000000 0.000000
				CHANNELS 3 Zrotation Yrotation Xrotation
				End Site
				{
					OFFSET 0.000000 0.000000 0.000000
				}
			}
		}
	}
}
MOTION
Frames: 4
Frame Time: 0.016667
0.330270 88.612801 3.214742 0.445040 -0.239837 -10.520736 0.713239 0.037759 7.276187 -1.025405 0.354157 2.928414 -0.259733 -0.729781 5.351339 -1.296797 0.123588 5.353257 3.716046 -0.421890 5.729049 0.597445 0.776773 -2.912593 -0.072237 -0.738239 -20.090456 0.000000 0.000000 0.000000 91.864632 -0.201887 9.361773 68.561806 -16.415224 0.268562 -0.000699 21.716908 49.535042 -14.825464 4.690764 -4.104881 16.672174 31.224110 65.290047 -4.802021 -6.086927 -10.923644 -3.510883 -4.035855 -7.396996 0.000000 0.000000 0.000000 -13.084308 -6.637167 11.607931 0.213602 0.587622 0.435325 -0.138965 0.162925 0.542295 0.000000 0.000000 0.000000 -12.408296 -1.254745 7.071132 -0.684544 0.556102 0.128468 -0.299448 0.052370 0.137964 0.000000 0.000000 0.000000 -9.930076 6.255099 1.225818 -0.341006 -1.060434 -0.325179 -0.388509 -0.061717 -0.208388 0.000000 0.000000 0.000000 -8.065367 14.286180 -4.882758 0.494902 -2.090609 -0.836937 0.281959 -0.128872 -0.675748 0.000000 0.000000 0.000000 0.000000 0.000000 0.000000 0.000000 0.000000 0.000000 -89.879387 -0.079867 4.782509 -70.991394 7.495493 -6.424421 -0.738161 -16.582508 72.116600 17.718493 -5.055511 -4.087101 -15.761366 -31.542355 66.242371 3.854164 4.204493 -7.835273 2.634372 2.868776 -5.590093 0.000000 0.000000 0.000000 14.453021 -11.566823 15.859255 -0.061932 0.646356 -0.050799 -0.177178 0.178327 -0.128373 0.000000 0.000000 0.000000 13.346669 -5.984668 10.254092 -0.232096 0.552540 -0.061936 -0.709350 0.058096 -0.062786 0.000000 0.000000 0.000000 9.167287 2.863571 2.871497 -2.258797 -1.074685 0.250640 -2.207144 -0.071679 0.212361 0.000000 0.000000 0.000000 3.333834 12.962092 -4.878269 -4.755772 -2.086991 1.140487 -4.357459 -0.060021 1.069267 0.000000 0.000000 0.000000 0.000000 0.000000 0.000000 0.000000 0.000000 0.000000 -1.299421 -9.283951 15.291906 -0.080100 -0.734184 4.636187 -2.937581 -7.034166 16.317226 -0.828416 0.884133 -18.151648 0.000000 0.000000 0.000000 0.000000 0.000000 0.000000 0.000000 0.000000 0.000000 -1.617419 -5.222859 9.478880 0.063404 0.342773 9.735653 3.800242 -1.901457 16.348509 0.242416 -0.494925 -20.348700 0.000000 0.000000 0.000000 0.000000 0.000000 0.000000 0.000000 0.000000 0.000000 
0.342569 88.614792 3.241525 0.438229 -0.232693 -10.550548 0.723966 0.033747 7.284829 -1.030922 0.350852 2.901633 -0.272097 -0.735938 5.428421 -1.307407 0.114151 5.327681 3.697283 -0.353512 5.754302 0.596834 0.826658 -2.899415 -0.085291 -0.748651 -20.050476 0.000000 0.000000 0.000000 91.874390 -0.207338 9.371129 68.615799 -16.245018 0.313309 -0.009474 21.783852 50.130959 -14.677345 5.474633 -4.344131 16.715797 31.205400 65.237122 -4.869421 -6.172416 -11.075879 -3.559202 -4.094196 -7.502627 0.000000 0.000000 0.000000 -12.645886 -6.697145 11.416668 0.182701 0.591615 0.428021 -0.176952 0.167213 0.535783 0.000000 0.000000 0.000000 -11.942972 -1.324950 6.948986 -0.719037 0.558035 0.124975 -0.319806 0.053749 0.135373 0.000000 0.000000 0.000000 -9.346557 6.157967 1.166348 -0.340719 -1.062914 -0.321258 -0.388614 -0.063176 -0.205315 0.000000 0.000000 0.000000 -7.413228 14.175488 -4.921800 0.543606 -2.099292 -0.816357 0.319390 -0.136953 -0.658289 0.000000 0.000000 0.000000 0.000000 0.000000 0.000000 0.000000 0.000000 0.000000 -89.891808 -0.079958 4.798188 -71.194489 7.374078 -6.329090 -0.754314 -16.646936 72.435692 17.122463 -6.132341 -4.211952 -15.838216 -31.510086 66.156174 3.962747 4.355612 -8.090408 2.714607 2.970604 -5.764307 0.000000 0.000000 0.000000 13.857753 -11.448750 15.562161 -0.026924 0.648364 -0.050691 -0.144471 0.180109 -0.128154 0.000000 0.000000 0.000000 12.686380 -5.866801 10.036413 -0.206779 0.553232 -0.061872 -0.681395 0.058361 -0.062940 0.000000 0.000000 0.000000 8.341752 2.995612 2.735841 -2.282519 -1.075534 0.251926 -2.226801 -0.071982 0.213545 0.000000 0.000000 0.000000 2.441367 13.093740 -4.964368 -4.841825 -2.090218 1.147616 -4.439251 -0.062345 1.078785 0.000000 0.000000 0.000000 0.000000 0.000000 0.000000 0.000000 0.000000 0.000000 -1.306711 -9.308180 15.350007 -0.079061 -0.730632 4.641559 -2.925751 -7.055185 16.312595 -0.827738 0.884278 -18.127760 0.000000 0.000000 0.000000 0.000000 0.000000 0.000000 0.000000 0.000000 0.000000 -1.594597 -5.184775 9.518894 0.063293 0.346551 9.745128 3.788823 -1.903307 16.344099 0.241457 -0.493775 -20.357317 0.000000 0.000000 0.000000 0.000000 0.000000 0.000000 0.000000 0.000000 0.000000 
0.354555 88.616623 3.268308 0.426261 -0.228935 -10.583603 0.740253 0.029380 7.295258 -1.040985 0.348294 2.876990 -0.275406 -0.747041 5.509002 -1.322267 0.104560 5.302537 3.672061 -0.292866 5.777843 0.593724 0.866878 -2.887027 -0.095508 -0.758456 -20.015135 0.000000 0.000000 0.000000 91.874123 -0.211350 9.388073 68.683647 -16.105162 0.363878 -0.020037 21.828360 50.681496 -14.470737 6.320000 -4.614618 16.756521 31.187618 65.187630 -4.933666 -6.252199 -11.219424 -3.604990 -4.148099 -7.601342 0.000000 0.000000 0.000000 -12.236854 -6.752574 11.215115 0.162652 0.594535 0.421787 -0.204184 0.170436 0.530180 0.000000 0.000000 0.000000 -11.502851 -1.391033 6.815648 -0.740261 0.559588 0.122005 -0.326055 0.054744 0.133181 0.000000 0.000000 0.000000 -8.780948 6.064338 1.094819 -0.324391 -1.064592 -0.317919 -0.373460 -0.064027 -0.202685 0.000000 0.000000 0.000000 -6.773280 14.066767 -4.978294 0.610172 -2.105925 -0.798005 0.374263 -0.143272 -0.641923 0.000000 0.000000 0.000000 0.000000 0.000000 0.000000 0.000000 0.000000 0.000000 -89.896187 -0.079702 4.818954 -71.397980 7.299231 -6.234706 -0.763566 -16.680468 72.764244 16.429930 -7.240257 -4.390537 -15.918674 -31.476362 66.066833 4.074746 4.511745 -8.356825 2.797689 3.076577 -5.944155 0.000000 0.000000 0.000000 13.238449 -11.325808 15.243168 -0.008143 0.648389 -0.056036 -0.125970 0.179969 -0.132791 0.000000 0.000000 0.000000 12.000557 -5.744599 9.797663 -0.200318 0.553185 -0.064093 -0.670845 0.057979 -0.064801 0.000000 0.000000 0.000000 7.476527 3.134061 2.583856 -2.334789 -1.075247 0.255869 -2.275362 -0.071328 0.216720 0.000000 0.000000 0.000000 1.502271 13.231791 -5.065836 -4.960345 -2.089947 1.161281 -4.554052 -0.061806 1.093220 0.000000 0.000000 0.000000 0.000000 0.000000 0.000000 0.000000 0.000000 0.000000 -1.305290 -9.330930 15.404605 -0.077860 -0.726378 4.656190 -2.912823 -7.088560 16.314953 -0.826559 0.884808 -18.110542 0.000000 0.000000 0.000000 0.000000 0.000000 0.000000 0.000000 0.000000 0.000000 -1.567929 -5.152676 9.555815 0.063129 0.350049 9.770453 3.779845 -1.907440 16.335140 0.239832 -0.491672 -20.370262 0.000000 0.000000 0.000000 0.000000 0.000000 0.000000 0.000000 0.000000 0.000000 
0.365812 88.618454 3.295156 0.410039 -0.229674 -10.620511 0.760857 0.025376 7.308091 -1.054755 0.346634 2.858649 -0.269967 -0.759230 5.593598 -1.340632 0.097407 5.280186 3.640370 -0.245523 5.797612 0.587488 0.891338 -2.878658 -0.099588 -0.766660 -19.988916 0.000000 0.000000 0.000000 91.864861 -0.213575 9.412708 68.757454 -16.000389 0.416208 -0.032912 21.850586 51.185043 -14.175719 7.276349 -4.901754 16.794127 31.170368 65.141029 -4.996237 -6.326479 -11.355837 -3.648893 -4.197348 -7.694000 0.000000 0.000000 0.000000 -11.856030 -6.804274 11.008875 0.153457 0.595708 0.418204 -0.221599 0.171938 0.526928 0.000000 0.000000 0.000000 -11.084885 -1.453966 6.673347 -0.748481 0.560452 0.120166 -0.317998 0.055080 0.131936 0.000000 0.000000 0.000000 -8.226150 5.972589 1.010786 -0.291648 -1.065080 -0.315847 -0.342129 -0.064018 -0.201054 0.000000 0.000000 0.000000 -6.133115 13.957732 -5.054722 0.696775 -2.109686 -0.783386 0.449101 -0.147050 -0.627850 0.000000 0.000000 0.000000 0.000000 0.000000 0.000000 0.000000 0.000000 0.000000 -89.891037 -0.077408 4.841959 -71.600700 7.265075 -6.131632 -0.762772 -16.676235 73.128670 15.625839 -8.402719 -4.604542 -16.003096 -31.441118 65.974251 4.190236 4.672865 -8.635293 2.883632 3.187027 -6.129934 0.000000 0.000000 0.000000 12.595974 -11.199640 14.907427 -0.013386 0.645720 -0.069272 -0.129777 0.177232 -0.144683 0.000000 0.000000 0.000000 11.289565 -5.618534 9.541989 -0.221650 0.552120 -0.069598 -0.686735 0.056715 -0.069168 0.000000 0.000000 0.000000 6.567840 3.280018 2.418123 -2.426799 -1.073470 0.263748 -2.364871 -0.069414 0.222814 0.000000 0.000000 0.000000 0.509480 13.378529 -5.182869 -5.123425 -2.085071 1.184399 -4.713744 -0.057393 1.114873 0.000000 0.000000 0.000000 0.000000 0.000000 0.000000 0.000000 0.000000 0.000000 -1.297350 -9.352307 15.457184 -0.076476 -0.721266 4.680089 -2.896136 -7.136353 16.325289 -0.824594 0.885643 -18.101038 0.000000 0.000000 0.000000 0.000000 0.000000 0.000000 0.000000 0.000000 0.000000 -1.540104 -5.130138 9.588938 0.062903 0.353176 9.813106 3.775766 -1.916569 16.322649 0.237398 -0.489080 -20.389046 0.000000 0.000000 0.000000 0.000000 0.000000 0.000000 0.000000 0.000000 0.000000 
